<?xml version="1.0" standalone="no"?>
<!DOCTYPE svg PUBLIC "-//W3C//DTD SVG 20010904//EN"
 "http://www.w3.org/TR/2001/REC-SVG-20010904/DTD/svg10.dtd">
<svg version="1.0" xmlns="http://www.w3.org/2000/svg"
 width="260.000000pt" height="260.000000pt" viewBox="0 0 260.000000 260.000000"
 preserveAspectRatio="xMidYMid meet">
<metadata>
Created by potrace 1.14, written by Peter Selinger 2001-2017
</metadata>
<g transform="translate(0.000000,260.000000) scale(0.100000,-0.100000)"
fill="#000000" stroke="none">
<path d="M1186 2393 c-1 -2 -22 -5 -47 -8 -61 -8 -219 -47 -219 -54 0 -4 -8
-7 -18 -8 -27 -2 -185 -80 -210 -104 -12 -11 -22 -17 -22 -14 0 4 -6 0 -14 -7
-7 -7 -24 -20 -37 -28 -12 -8 -33 -25 -46 -37 -13 -12 -23 -20 -23 -18 0 3
-18 -13 -39 -34 -22 -22 -42 -36 -46 -33 -4 4 -6 3 -5 -3 5 -21 0 -36 -10 -30
-5 3 -10 2 -10 -2 0 -5 -11 -21 -25 -36 -14 -15 -24 -27 -21 -27 3 0 -6 -12
-19 -26 -14 -15 -22 -30 -19 -35 3 -5 1 -9 -5 -9 -10 0 -27 -26 -61 -100 -12
-24 -27 -48 -33 -52 -7 -4 -9 -8 -5 -8 4 0 0 -16 -8 -35 -8 -19 -12 -35 -9
-35 3 0 -2 -11 -11 -24 -8 -14 -15 -27 -15 -30 1 -4 0 -8 0 -11 -1 -3 -3 -14
-4 -25 -1 -11 -3 -21 -4 -22 -3 -4 -9 -35 -20 -108 -13 -79 -12 -282 1 -297 8
-9 7 -13 -2 -13 -10 0 -10 -3 0 -15 7 -8 10 -21 7 -30 -4 -8 -2 -17 3 -20 5
-3 7 -12 4 -19 -3 -8 -1 -17 5 -21 6 -3 11 -16 11 -29 0 -12 6 -28 13 -35 10
-11 9 -13 -1 -7 -7 4 -1 -19 14 -51 14 -32 28 -65 32 -73 3 -8 8 -17 11 -20 3
-3 17 -26 31 -52 13 -27 28 -48 32 -48 5 0 7 -3 6 -7 -2 -5 6 -19 17 -32 73
-87 195 -214 195 -203 0 4 5 -1 11 -10 5 -10 16 -18 24 -18 7 0 15 -4 17 -8 2
-5 26 -24 53 -43 71 -50 80 -54 70 -40 -6 10 -3 11 14 2 11 -7 21 -9 21 -6 0
3 10 -1 23 -10 13 -8 27 -12 31 -8 4 5 6 1 4 -7 -2 -8 3 -14 10 -12 6 1 11 -3
10 -10 -2 -6 20 -18 47 -26 28 -8 53 -19 56 -24 3 -5 9 -9 13 -8 4 2 32 -3 64
-9 31 -6 68 -13 82 -16 14 -2 25 -4 25 -5 0 -1 21 -3 47 -4 26 -1 50 -5 54 -9
4 -4 13 -2 21 4 9 8 13 8 13 1 0 -6 6 -9 13 -7 6 2 46 7 88 9 42 3 87 7 100
10 13 3 35 8 49 10 70 12 118 29 114 41 -4 8 6 11 31 10 19 -2 35 2 35 7 0 5
5 6 10 3 6 -3 10 -1 10 4 0 6 9 11 20 11 11 0 20 4 20 9 0 6 9 8 19 6 15 -3
18 0 14 12 -5 12 -2 15 10 10 9 -3 17 -3 17 1 0 5 16 14 35 22 19 8 35 18 35
22 0 5 5 6 10 3 6 -3 10 4 11 17 1 13 2 37 3 53 1 37 17 48 51 35 14 -5 38
-10 53 -9 15 0 21 3 14 6 -10 4 -8 9 7 20 12 8 24 12 29 10 4 -3 13 1 20 9 7
8 10 14 6 14 -4 0 5 12 19 26 15 15 24 30 21 35 -3 5 -2 8 3 7 4 -2 18 7 31
20 17 17 20 27 13 36 -7 9 -7 16 1 24 8 8 8 12 1 12 -5 0 -10 10 -9 22 1 18 7
23 31 25 17 0 37 2 46 2 8 1 21 17 29 36 8 19 17 35 21 35 6 0 23 50 19 59 -1
2 3 7 9 11 7 3 13 21 14 38 1 18 5 32 8 32 6 0 14 21 24 60 6 25 19 89 20 103
2 9 4 18 5 20 1 1 3 34 5 74 1 39 6 76 9 82 4 6 4 11 -1 11 -4 0 -9 19 -10 43
-2 77 -17 170 -33 211 -5 15 -7 26 -4 26 4 0 1 6 -5 14 -7 8 -14 22 -16 32 -9
44 -42 123 -48 117 -4 -3 -7 3 -7 15 0 12 -5 22 -11 22 -5 0 -8 4 -5 9 3 5 -1
14 -9 21 -8 7 -15 18 -15 25 0 6 -9 20 -20 30 -11 10 -20 24 -20 32 0 7 -5 13
-12 13 -6 0 -9 2 -6 5 7 8 -19 39 -118 141 -44 46 -86 84 -91 84 -6 0 -13 7
-17 15 -3 8 -10 15 -16 15 -5 0 -20 9 -33 20 -27 23 -70 49 -137 82 -25 12
-47 24 -50 28 -6 6 -126 49 -155 55 -11 2 -38 8 -60 14 -22 5 -62 13 -90 16
-51 7 -234 13 -239 8z"/>
</g>
</svg>
